<svg width="34" height="30" viewBox="0 0 34 30" fill="none" xmlns="http://www.w3.org/2000/svg">
<path fill-rule="evenodd" clip-rule="evenodd" d="M12 27C12.2115 27 12.5136 26.8627 12.7351 26.7353C18.4048 23.2059 22 19.098 22 14.9216C22 11.451 19.5529 9 16.29 9C14.427 9 12.9164 9.86275 12 11.1863C11.1037 9.87255 9.57301 9 7.70997 9C4.44713 9 2 11.451 2 14.9216C2 19.098 5.59517 23.2059 11.2749 26.7353C11.4864 26.8627 11.7885 27 12 27ZM12 25.3431C11.9597 25.3431 11.8892 25.2941 11.7986 25.2255C7.57905 22.5 3.62135 18.5686 3.62135 14.9216C3.62135 12.3137 5.35347 10.5784 7.68983 10.5784C9.58308 10.5784 10.6707 11.7255 11.3152 12.7059C11.5871 13.098 11.7583 13.2059 12 13.2059C12.2417 13.2059 12.3927 13.0882 12.6848 12.7059C13.3797 11.7451 14.427 10.5784 16.3102 10.5784C18.6465 10.5784 20.3787 12.3137 20.3787 14.9216C20.3787 18.5686 16.4209 22.5 12.2115 25.2255C12.1108 25.2941 12.0403 25.3431 12 25.3431Z" fill="#1A1A1A"/>
<path fill-rule="evenodd" clip-rule="evenodd" d="M12 25.3432C11.9597 25.3432 11.8892 25.2942 11.7986 25.2255C7.57904 22.5001 3.62134 18.5687 3.62134 14.9216C3.62134 12.3138 5.35346 10.5785 7.68982 10.5785C9.58307 10.5785 10.6707 11.7255 11.3152 12.7059C11.5871 13.0981 11.7583 13.2059 12 13.2059C12.2417 13.2059 12.3927 13.0883 12.6848 12.7059C13.3796 11.7452 14.427 10.5785 16.3102 10.5785C18.6465 10.5785 20.3786 12.3138 20.3786 14.9216C20.3786 18.5687 16.4209 22.5001 12.2115 25.2255C12.1108 25.2942 12.0403 25.3432 12 25.3432Z" fill="#FFE44D"/>
<rect x="11.5" y="1" width="21" height="16" rx="8" fill="#01A54E"/>
<path d="M18.0075 12C17.8515 12 17.7285 11.958 17.6385 11.874C17.5545 11.784 17.5125 11.664 17.5125 11.514C17.5125 11.358 17.5545 11.241 17.6385 11.163C17.7285 11.085 17.8515 11.046 18.0075 11.046H19.0155V6.627H19.5735L18.2505 7.428C18.1365 7.494 18.0285 7.521 17.9265 7.509C17.8305 7.491 17.7465 7.449 17.6745 7.383C17.6085 7.311 17.5635 7.227 17.5395 7.131C17.5155 7.035 17.5215 6.939 17.5575 6.843C17.5995 6.741 17.6775 6.657 17.7915 6.591L19.0335 5.844C19.1535 5.772 19.2735 5.712 19.3935 5.664C19.5135 5.61 19.6245 5.583 19.7265 5.583C19.8525 5.583 19.9575 5.619 20.0415 5.691C20.1255 5.757 20.1675 5.868 20.1675 6.024V11.046H21.0855C21.2415 11.046 21.3615 11.085 21.4455 11.163C21.5355 11.241 21.5805 11.358 21.5805 11.514C21.5805 11.67 21.5355 11.79 21.4455 11.874C21.3615 11.958 21.2415 12 21.0855 12H18.0075ZM23.197 12C23.005 12 22.864 11.958 22.774 11.874C22.69 11.784 22.648 11.655 22.648 11.487C22.648 11.385 22.675 11.286 22.729 11.19C22.783 11.094 22.861 10.992 22.963 10.884L24.772 8.958C25.048 8.67 25.246 8.409 25.366 8.175C25.486 7.935 25.546 7.695 25.546 7.455C25.546 7.155 25.45 6.927 25.258 6.771C25.072 6.615 24.799 6.537 24.439 6.537C24.235 6.537 24.031 6.567 23.827 6.627C23.623 6.681 23.416 6.777 23.206 6.915C23.098 6.987 22.996 7.017 22.9 7.005C22.81 6.993 22.729 6.954 22.657 6.888C22.591 6.822 22.546 6.741 22.522 6.645C22.498 6.549 22.501 6.453 22.531 6.357C22.567 6.255 22.639 6.168 22.747 6.096C23.005 5.922 23.293 5.79 23.611 5.7C23.935 5.61 24.259 5.565 24.583 5.565C25.039 5.565 25.423 5.634 25.735 5.772C26.047 5.91 26.284 6.111 26.446 6.375C26.608 6.639 26.689 6.96 26.689 7.338C26.689 7.59 26.647 7.836 26.563 8.076C26.485 8.316 26.362 8.559 26.194 8.805C26.032 9.051 25.819 9.312 25.555 9.588L23.863 11.352V11.046H26.509C26.671 11.046 26.794 11.085 26.878 11.163C26.962 11.241 27.004 11.358 27.004 11.514C27.004 11.67 26.962 11.79 26.878 11.874C26.794 11.958 26.671 12 26.509 12H23.197Z" fill="white"/>
<rect x="11.5" y="1" width="21" height="16" rx="8" stroke="#FFE44D" stroke-width="2"/>
</svg>
